<?xml version="1.0" encoding="UTF-8"?>
<svg id="_レイヤー_1" data-name="レイヤー 1" xmlns="http://www.w3.org/2000/svg" viewBox="0 0 384 512">
  <defs>
    <style>
      .cls-1 {
        fill: #fff;
        stroke-width: 0px;
      }
    </style>
  </defs>
  <path class="cls-1" d="m280,64h40c35.3,0,64,28.7,64,64v320c0,35.3-28.7,64-64,64H64c-35.3,0-64-28.7-64-64V128c0-35.3,28.7-64,64-64h49.6C121,27.5,153.3,0,192,0s71,27.5,78.4,64h9.6Zm-216,48c-8.8,0-16,7.2-16,16v320c0,8.8,7.2,16,16,16h256c8.8,0,16-7.2,16-16V128c0-8.8-7.2-16-16-16h-16v24c0,13.3-10.7,24-24,24H104c-13.3,0-24-10.7-24-24v-24h-16Zm128-8c13.25,0,24-10.75,24-24s-10.75-24-24-24-24,10.75-24,24,10.75,24,24,24Z"/>
</svg>