<?xml version="1.0" encoding="UTF-8"?>
<svg id="_レイヤー_1" data-name="レイヤー 1" xmlns="http://www.w3.org/2000/svg" viewBox="0 0 380 492.16">
  <defs>
    <style>
      .cls-1 {
        fill: #3d464e;
        stroke-width: 20px;
      }

      .cls-1, .cls-2 {
        stroke: #3d464e;
        stroke-miterlimit: 10;
      }

      .cls-2 {
        fill: none;
        stroke-width: 40px;
      }
    </style>
  </defs>
  <path class="cls-2" d="m210.98,462c45.42-56.84,149.02-194.61,149.02-272,0-93.85-76.15-170-170-170S20,96.15,20,190c0,77.39,103.59,215.16,149.02,272,10.89,13.55,31.08,13.55,41.97,0h0Zm-20.98-328.67c31.3,0,56.67,25.37,56.67,56.67s-25.37,56.67-56.67,56.67-56.67-25.37-56.67-56.67,25.37-56.67,56.67-56.67Zm42.86,55.85c0,23.67-19.19,42.86-42.86,42.86s-42.86-19.19-42.86-42.86,19.19-42.86,42.86-42.86,42.86,19.19,42.86,42.86Z"/>
  <circle class="cls-1" cx="190" cy="186.7" r="30"/>
</svg>