<?xml version="1.0" encoding="UTF-8"?>
<svg id="_レイヤー_1" data-name="レイヤー 1" xmlns="http://www.w3.org/2000/svg" viewBox="0 0 350 280.09">
  <defs>
    <style>
      .cls-1 {
        fill: #e1cc6d;
      }

      .cls-1, .cls-2 {
        stroke-width: 0px;
      }

      .cls-2 {
        fill: #fff;
      }
    </style>
  </defs>
  <path class="cls-2" d="m230.76,265.23l15.92,2.97v11.89h-26.54l-53.72-64.76h-17.41v49.89l16.99,2.97v11.89h-52.23v-11.89l16.98-2.97v-106.16l-16.98-2.97v-11.89h52.23v11.89l-16.99,2.97v40.55h15.92l31.21-38.85c15.07-18.9,24.84-19.96,31.42-19.96,7.86,0,17.41,5.73,17.41,15.29,0,6.37-4.67,12.74-12.53,12.74-5.31,0-9.56-4.04-9.56-9.55,0-1.91.43-2.55.85-3.18-3.82.64-7.22,4.03-11.89,9.98l-30.79,39.28,49.68,59.87Z"/>
  <g>
    <path class="cls-1" d="m133.5,117.96c0,2.75-.64,5.19-1.91,7.32-1.28,2.12-3.21,3.73-5.8,4.83-1.46.65-3.09,1.06-4.89,1.24-1.8.18-3.49.27-5.07.27h-1.09c-.36,0-.73-.02-1.09-.06-2.95-.12-5.93-.18-8.92-.18-1.13,0-2.27.05-3.4.15-1.13.1-2.29.15-3.46.15-.16,0-.3-.07-.42-.21-.12-.14-.18-.29-.18-.46,0-.49.19-.78.58-.88.38-.1.84-.19,1.37-.27.53-.08,1.01-.32,1.46-.73.44-.4.71-1.17.79-2.31.04-.49.06-.97.06-1.46v-1.46c0-5.14-.01-10.27-.03-15.39-.02-5.12-.03-10.25-.03-15.39,0-1.78-.3-2.87-.91-3.28-.61-.4-1.74-.61-3.4-.61-.28,0-.54-.1-.76-.3-.22-.2-.33-.44-.33-.73,0-.77.42-1.15,1.28-1.15s1.64.04,2.49.12c.85.08,1.68.12,2.49.12,2.06,0,4.13-.07,6.19-.21,2.06-.14,4.13-.29,6.19-.46.4-.04.8-.07,1.18-.09.38-.02.76-.03,1.12-.03,2.31,0,4.48.27,6.53.82,2.04.55,3.7,1.55,4.98,3,1.28,1.46,1.91,3.56,1.91,6.31,0,1.58-.42,3.08-1.24,4.49-.83,1.42-1.87,2.59-3.13,3.52-.4.36-.85.68-1.34.94-.49.26-.99.52-1.52.76-.08.04-.23.11-.46.21-.22.1-.33.23-.33.4,0,.12.11.21.33.27.22.06.37.11.46.15.65.16,1.28.33,1.88.52.61.18,1.21.44,1.82.76,1.86.89,3.43,2.12,4.71,3.7,1.27,1.58,1.91,3.44,1.91,5.59Zm-11.72-20.64c0-2.39-.35-4.2-1.06-5.43-.71-1.23-1.79-2.06-3.25-2.49s-3.28-.64-5.46-.64c-.41,0-.81.01-1.21.03-.41.02-.81.05-1.21.09v17.97h1.76c.81,0,1.7-.03,2.67-.09.97-.06,1.91-.23,2.82-.52s1.67-.73,2.28-1.34c.93-.93,1.61-2.1,2.03-3.52.42-1.42.64-2.77.64-4.07Zm3.04,21.67c0-1.62-.17-3.23-.52-4.83-.34-1.6-1.01-2.94-2-4.04-.99-1.09-2.5-1.64-4.52-1.64-1.38,0-2.74.03-4.1.09-1.36.06-2.72.09-4.1.09v19c0,1.13.29,1.8.88,2,.59.2,1.33.3,2.22.3h1.49c.51,0,1-.02,1.49-.06,2.02-.12,3.71-.69,5.07-1.7,1.36-1.01,2.38-2.33,3.07-3.95.69-1.62,1.03-3.38,1.03-5.28Z"/>
    <path class="cls-1" d="m155.48,130.47c0,.65-.32.97-.97.97-1.17,0-2.37-.05-3.58-.15-1.21-.1-2.43-.15-3.64-.15s-2.44.05-3.67.15c-1.24.1-2.46.15-3.67.15-.28,0-.49-.11-.61-.33-.12-.22-.18-.43-.18-.64,0-.65.3-.97.91-.97.4,0,.79.02,1.15.06.36.04.73.06,1.09.06.49,0,.8-.16.94-.49.14-.32.21-.69.21-1.09v-24.1c0-.4-.04-.86-.12-1.37-.08-.51-.41-.76-.97-.76-.53,0-1.07.04-1.64.12-.57.08-1.13.12-1.7.12-.24,0-.48-.06-.7-.18-.22-.12-.33-.32-.33-.61,0-.53.26-.87.79-1.03.44-.08.92-.15,1.43-.21.51-.06.98-.11,1.43-.15,1.42-.2,2.8-.46,4.16-.76,1.36-.3,2.72-.62,4.1-.94.12,0,.24,0,.36-.03.12-.02.22-.03.3-.03.61,0,.91.24.91.73,0,4.86-.02,9.72-.06,14.6-.04,4.88-.06,9.74-.06,14.6,0,.73.16,1.18.49,1.37.32.18.74.25,1.24.21.51-.04,1.02-.06,1.55-.06.57,0,.85.3.85.91Zm-3.82-41.71c0,1.25-.45,2.35-1.37,3.28-.91.93-2.01,1.4-3.31,1.4s-2.35-.46-3.28-1.4c-.93-.93-1.4-2.02-1.4-3.28s.46-2.4,1.4-3.31c.93-.91,2.02-1.37,3.28-1.37s2.4.46,3.31,1.37,1.37,2.01,1.37,3.31Z"/>
    <path class="cls-1" d="m182.92,122.27c0,1.9-.4,3.45-1.21,4.64-.81,1.19-1.88,2.12-3.22,2.76-1.34.65-2.78,1.09-4.34,1.34-1.56.24-3.11.36-4.64.36-1.01,0-2-.1-2.98-.3-.97-.2-1.94-.43-2.91-.67-.4-.08-.83-.17-1.27-.27-.45-.1-.89-.15-1.34-.15-.16-.57-.39-1.41-.7-2.52-.3-1.11-.59-2.21-.85-3.28-.26-1.07-.39-1.83-.39-2.28s.14-.73.42-.85c.28-.12.59-.18.91-.18.49,0,.85.18,1.09.55.61.85,1.09,1.74,1.46,2.67.36.93.93,1.8,1.7,2.61.57.61,1.39,1.22,2.46,1.85,1.07.63,2.03.94,2.88.94,1.82,0,3.19-.42,4.1-1.28.91-.85,1.37-2.21,1.37-4.07,0-1.25-.38-2.31-1.15-3.16-.77-.85-1.75-1.62-2.94-2.31-1.19-.69-2.46-1.37-3.79-2.03s-2.6-1.41-3.79-2.22c-1.19-.81-2.18-1.79-2.94-2.94-.77-1.15-1.15-2.56-1.15-4.22,0-2.06.57-3.74,1.7-5.04,1.13-1.3,2.58-2.25,4.34-2.85,1.76-.61,3.53-.91,5.31-.91.81,0,1.6.06,2.37.18.77.12,1.54.34,2.31.67.36.12.86.27,1.49.46.63.18,1.12.27,1.49.27.53,0,1.03-.06,1.52-.18.08,1.13.21,2.27.39,3.4.18,1.13.29,2.27.33,3.4v.18c.04.41-.07.74-.33,1-.26.26-.58.39-.94.39-.41,0-.7-.08-.88-.24-.18-.16-.35-.4-.52-.73-.53-1.17-1.04-2.3-1.55-3.37-.51-1.07-1.17-1.95-2-2.64-.83-.69-2.01-1.03-3.55-1.03-1.62,0-2.81.63-3.58,1.88-.77,1.25-1.15,2.59-1.15,4.01,0,1.13.43,2.11,1.28,2.91.85.81,1.72,1.46,2.61,1.94,1.09.57,2.36,1.19,3.79,1.88,1.44.69,2.82,1.48,4.16,2.37,1.34.89,2.45,1.91,3.34,3.07.89,1.15,1.34,2.48,1.34,3.98Z"/>
    <path class="cls-1" d="m206.9,128.28c0,.57-.29,1.06-.88,1.49-.59.42-1.32.77-2.19,1.03-.87.26-1.75.46-2.64.58-.89.12-1.64.18-2.25.18-3.04,0-5.14-.62-6.31-1.85-1.17-1.23-1.76-3.29-1.76-6.16,0-3.48.02-6.96.06-10.44.04-3.48.06-6.96.06-10.44h-2.79c-.41,0-.75.13-1.03.39-.28.26-.55.39-.79.39-.41,0-.61-.2-.61-.61,0-.16.08-.46.24-.91.16-.44.28-.73.36-.85.12-.24.24-.38.36-.42s.3-.06.55-.06h3.76v-6.5c1.01-.57,2.12-1.4,3.34-2.49,1.21-1.09,2.15-2.1,2.79-3.04.12-.2.28-.41.49-.64.2-.22.44-.33.73-.33.65,0,.95.28.91.85l-.18,12.14h6.25c.32,0,.62.07.88.21.26.14.39.39.39.76,0,.77-.42,1.15-1.27,1.15h-6.25l-.12,23.43c0,.65.13,1.26.39,1.85.26.59.78.88,1.55.88.69,0,1.39-.06,2.09-.18.71-.12,1.37-.32,1.97-.61.2-.08.39-.17.58-.27.18-.1.37-.15.58-.15.49,0,.73.2.73.61Z"/>
    <path class="cls-1" d="m233.86,105.76c0,.41-.11.78-.33,1.12-.22.34-.56.52-1,.52-.69,0-1.15-.28-1.4-.85-.24-.53-.5-1.14-.76-1.85-.26-.71-.61-1.33-1.03-1.85-.43-.53-1.02-.79-1.79-.79-.41,0-.79.08-1.15.24-.36.16-.71.36-1.03.61-1.3.89-2.34,2.16-3.13,3.79-.79,1.64-1.31,3.25-1.55,4.83v-.06,16.45c0,.69.19,1.13.58,1.34.38.2.85.27,1.4.21.55-.06,1.04-.09,1.49-.09.57,0,.85.3.85.91,0,.65-.32.97-.97.97-1.21,0-2.43-.02-3.64-.06-1.21-.04-2.43-.06-3.64-.06s-2.51.03-3.76.09c-1.25.06-2.53.09-3.82.09-.28,0-.49-.11-.61-.33s-.18-.43-.18-.64c0-.61.32-.91.97-.91.4,0,.8.01,1.18.03.38.02.78.03,1.18.03.49,0,.81-.16.97-.49.16-.32.24-.69.24-1.09v-21.98c0-.44-.04-.97-.12-1.58-.08-.61-.25-1.15-.52-1.64-.26-.49-.7-.73-1.31-.73-.41,0-.8.05-1.18.15-.39.1-.8.15-1.24.15-.61,0-.91-.3-.91-.91,0-.45.22-.75.67-.91.57-.2,1.15-.33,1.76-.4.61-.06,1.19-.15,1.76-.27.53-.12,1.21-.29,2.06-.52.85-.22,1.69-.42,2.52-.61.83-.18,1.47-.27,1.91-.27.61,0,1.05.22,1.34.67.12.2.24.68.36,1.43.12.75.22,1.51.3,2.28.08.77.12,1.32.12,1.64,1.25-1.58,2.65-3.01,4.19-4.31,1.54-1.29,3.4-1.94,5.59-1.94.57,0,1.16.11,1.79.33.63.22,1.02.66,1.18,1.31.2.77.36,1.75.49,2.94.12,1.19.18,2.2.18,3.01Z"/>
    <path class="cls-1" d="m268.83,115.53c0,3.12-.71,5.88-2.12,8.29-1.42,2.41-3.35,4.3-5.8,5.68-2.45,1.38-5.23,2.06-8.35,2.06s-5.87-.73-8.26-2.19c-2.39-1.46-4.26-3.42-5.62-5.89-1.36-2.47-2.03-5.24-2.03-8.32s.67-6.06,2-8.59c1.34-2.53,3.22-4.53,5.65-6.01,2.43-1.48,5.26-2.22,8.5-2.22,3.56,0,6.53.72,8.89,2.16,2.37,1.44,4.15,3.44,5.34,6.01,1.19,2.57,1.79,5.58,1.79,9.02Zm-8.26-.3c0-1.34-.09-2.86-.27-4.58-.18-1.72-.56-3.39-1.12-5.01-.57-1.62-1.39-2.96-2.46-4.04-1.07-1.07-2.52-1.61-4.34-1.61-1.66,0-3,.53-4.01,1.58-1.01,1.05-1.79,2.37-2.34,3.95-.55,1.58-.92,3.21-1.12,4.89-.2,1.68-.3,3.13-.3,4.34,0,1.34.09,2.86.27,4.58.18,1.72.56,3.39,1.12,5.01.57,1.62,1.4,2.95,2.49,4.01,1.09,1.05,2.55,1.58,4.37,1.58,1.7,0,3.07-.52,4.1-1.55,1.03-1.03,1.81-2.33,2.34-3.89.53-1.56.87-3.18,1.03-4.86.16-1.68.24-3.15.24-4.4Z"/>
  </g>
  <path class="cls-2" d="m35.71,127.96H0L174.18,0h1.63l174.19,127.96h-35.71L175,25.24,35.71,127.96Z"/>
</svg>