<?xml version="1.0" encoding="UTF-8"?>
<svg id="_レイヤー_1" data-name="レイヤー 1" xmlns="http://www.w3.org/2000/svg" viewBox="0 0 511.66 512">
  <defs>
    <style>
      .cls-1 {
        fill: #fff;
        stroke-width: 0px;
      }
    </style>
  </defs>
  <path class="cls-1" d="m15.78,260.2c-22.6,12.9-20.5,47.3,3.6,57.3l140.3,58.5v103.3c0,18.1,14.6,32.7,32.7,32.7,9.7,0,18.9-4.3,25.1-11.8l62-74.3,123.9,51.6c18.9,7.9,40.8-4.5,43.9-24.7L511.28,36.8c1.9-12.1-3.4-24.3-13.5-31.2s-23.3-7.5-34-1.4L15.78,260.2h0Zm52.1,25.5L409.38,90.6l-219.6,245.4,1.2,1-123.1-51.3Zm335.1,139.7l-166.6-69.5,214.1-239.3-47.5,308.8Z"/>
</svg>