<?xml version="1.0" encoding="UTF-8"?>
<svg id="_レイヤー_1" data-name="レイヤー 1" xmlns="http://www.w3.org/2000/svg" viewBox="0 0 95 34.25">
  <defs>
    <style>
      .cls-1 {
        fill: #eff2f4;
        stroke-width: 0px;
      }
    </style>
  </defs>
  <g>
    <path class="cls-1" d="m26.46,3.47h-11.4v30.36h-3.42V3.47H0V.43h26.46v3.04Z"/>
    <path class="cls-1" d="m29.42,17.15C29.42,7.55,36.69,0,46.76,0s17.25,7.46,17.25,17.15-7.22,17.1-17.25,17.1-17.34-7.36-17.34-17.1Zm31.16,0c0-7.93-5.99-14.06-13.82-14.06s-13.92,6.18-13.92,14.06,5.99,14.01,13.92,14.01,13.82-5.84,13.82-14.01Z"/>
    <path class="cls-1" d="m95,11.59c0,7.46-5.51,11.21-12.97,11.21h-7.41v11.02h-3.37V.43h10.88c7.41,0,12.87,3.9,12.87,11.16Zm-3.61,0c0-5.18-3.9-8.12-9.36-8.12h-7.41v16.29h7.41c5.51,0,9.36-2.9,9.36-8.17Z"/>
  </g>
  <path class="cls-1" d="m53.93,7.45c-.64,0-5.14,1.29-5.14,7.07v4.5c0,1.42,1.15,2.57,2.57,2.57h1.29v5.14c0,.71.57,1.29,1.29,1.29s1.29-.57,1.29-1.29V8.74c0-.71-.57-1.29-1.29-1.29Zm-14.14.64c0-.33-.25-.6-.57-.64-.33-.04-.62.18-.7.5l-1.22,5.48c-.06.25-.08.51-.08.77,0,1.84,1.41,3.36,3.21,3.52v9.02c0,.71.57,1.29,1.29,1.29s1.29-.57,1.29-1.29v-9.02c1.8-.16,3.21-1.68,3.21-3.52,0-.26-.03-.51-.08-.77l-1.22-5.48c-.07-.32-.37-.53-.7-.5s-.57.31-.57.64v5.39c0,.22-.18.39-.39.39-.2,0-.37-.16-.39-.36l-.5-5.48c-.03-.33-.31-.59-.64-.59s-.61.25-.64.59l-.5,5.48c-.02.2-.19.36-.39.36-.22,0-.39-.18-.39-.39v-5.39h0Zm1.94,6.11h-.02v-.03s.02.03.02.03Z"/>
</svg>