<?xml version="1.0" encoding="UTF-8"?>
<svg id="_レイヤー_1" data-name="レイヤー 1" xmlns="http://www.w3.org/2000/svg" viewBox="0 0 900 318.4">
  <defs>
    <style>
      .cls-1 {
        fill: #e0e380;
      }

      .cls-1, .cls-2 {
        stroke-width: 0px;
      }

      .cls-2 {
        fill: #fff;
      }
    </style>
  </defs>
  <g id="Ken1">
    <path class="cls-2" d="m403.87,302.6l13.78,2.57v10.29h-22.97l-46.48-56.03h-15.07v43.17l14.7,2.57v10.29h-45.2v-10.29l14.7-2.57v-91.86l-14.7-2.57v-10.29h45.2v10.29l-14.7,2.57v35.09h13.78l27.01-33.62c13.04-16.35,21.49-17.27,27.19-17.27,6.8,0,15.07,4.96,15.07,13.23,0,5.51-4.04,11.02-10.84,11.02-4.59,0-8.27-3.49-8.27-8.27,0-1.65.37-2.2.74-2.76-3.31.55-6.25,3.49-10.29,8.63l-26.64,33.99,42.99,51.81Z"/>
    <path class="cls-2" d="m508.24,298.01l6.43,9.92c-.92.74-14.51,10.47-35.27,10.47-27.01,0-45.93-16.17-45.93-44.83s18.19-46.3,43.91-46.3c29.21,0,40.42,19.66,40.42,39.13,0,7.53-1.65,11.57-2.02,12.49h-67.61c1.29,16.35,12.68,26.82,31.41,26.82,16.72,0,27.56-6.98,28.66-7.72Zm-4.59-31.78c.09-.83.18-1.93.18-3.12,0-9-4.59-22.96-26.64-22.96-14.88,0-26.45,9.55-28.84,26.09h55.3Z"/>
    <path class="cls-2" d="m564.28,242.16c2.76-3.12,13.78-14.88,34.35-14.88,19.47,0,35.46,10.29,35.46,37.66v38.03l14.7,2.2v10.29h-42.62v-10.29l12.86-2.2v-36.19c0-19.11-7.35-26.09-23.88-26.09s-26.46,12.86-28.84,17.82v44.46l14.7,2.2v10.29h-42.62v-10.29l12.86-2.2v-59.52l-15.07-2.21v-11.02l25.35-1.47,2.76,13.41Z"/>
  </g>
  <g id="_大衆ビストロ" data-name="大衆ビストロ">
    <g id="_ビストロ" data-name="ビストロ">
      <path class="cls-1" d="m437.06,103.34c0,2.7-1.07,5.2-3.2,7.48-2.13,2.29-4.24,4.16-6.31,5.61-4.26,2.91-9.15,5.38-14.65,7.4-5.51,2.03-11.17,3.59-16.99,4.68-5.82,1.09-11.33,1.64-16.52,1.64s-10.76-.44-16.05-1.32c-5.3-.88-10-2.75-14.11-5.61-4.11-2.86-7.15-7.25-9.12-13.17-1.04-3.12-1.66-6.41-1.87-9.9-.21-3.48-.31-6.83-.31-10.05V25.41h18.7c-.21,7.07-.36,14.18-.47,21.35-.1,7.17-.16,14.29-.16,21.35l.16-.16c6.23-1.87,12.49-4.44,18.78-7.72,6.29-3.27,12.44-6.86,18.47-10.75,6.03-3.9,11.64-7.77,16.83-11.61.41.42,1.38,1.33,2.88,2.73,1.51,1.4,3.14,2.99,4.91,4.75,1.77,1.77,3.3,3.35,4.6,4.75,1.3,1.4,1.95,2.26,1.95,2.57,0,.93-.42,1.64-1.25,2.1-.83.47-1.61.86-2.34,1.17-5.72,2.6-12.11,5.07-19.17,7.4-7.07,2.34-14.21,4.26-21.43,5.77-7.22,1.51-14.05,2.36-20.5,2.57h-.78c-.52,0-1.07-.02-1.64-.08-.57-.05-1.12-.18-1.64-.39v23.85c0,2.91.16,5.9.47,8.96.31,3.07,1.3,5.85,2.96,8.34,2.08,3.22,5.01,5.48,8.81,6.78,3.79,1.3,7.46,1.95,10.99,1.95,7.17,0,14.52-.88,22.06-2.65,7.53-1.77,14.47-4.26,20.81-7.48-1.46-.52-2.7-1.51-3.74-2.96-1.04-1.45-1.56-3.01-1.56-4.68,0-2.39,1.04-4.52,3.12-6.39,2.08-1.87,4.31-2.81,6.7-2.81s4.88.86,7.17,2.57c2.29,1.71,3.43,3.92,3.43,6.62Zm-6.24-69.67c0,.31-.21.65-.62,1.01-.42.37-.78.55-1.09.55-.73,0-1.95-.39-3.66-1.17-1.71-.78-3.61-1.71-5.69-2.81-2.08-1.09-4.05-2.1-5.92-3.04-1.87-.94-3.33-1.61-4.36-2.03-.42-.1-.81-.29-1.17-.55-.37-.26-.55-.6-.55-1.01,0-.52.62-1.48,1.87-2.88,1.25-1.4,2.62-2.73,4.13-3.98,1.51-1.25,2.57-1.87,3.2-1.87,1.14,0,2.49.7,4.05,2.1,1.56,1.4,3.09,3.12,4.6,5.14,1.51,2.03,2.75,4,3.74,5.92.99,1.92,1.48,3.46,1.48,4.6Zm16.68-7.33c0,.42-.16.86-.47,1.33-.31.47-.73.7-1.25.7s-1.61-.55-3.27-1.64c-1.66-1.09-3.51-2.39-5.53-3.9-2.03-1.51-3.95-2.91-5.77-4.21-1.82-1.3-3.14-2.16-3.97-2.57-.31-.21-.62-.44-.94-.7-.31-.26-.47-.6-.47-1.01,0-.62.65-1.61,1.95-2.96,1.3-1.35,2.7-2.57,4.21-3.66,1.51-1.09,2.57-1.64,3.2-1.64,1.14,0,2.42.83,3.82,2.49,1.4,1.66,2.75,3.69,4.05,6.08,1.3,2.39,2.36,4.68,3.19,6.86.83,2.18,1.25,3.79,1.25,4.83Z"/>
      <path class="cls-1" d="m602.6,120.64c0,2.91-1.04,5.14-3.12,6.7-2.08,1.56-4.47,2.34-7.17,2.34-5.09,0-10.08-1.27-14.96-3.82-4.89-2.55-9.51-5.77-13.87-9.66-4.36-3.9-8.42-8.03-12.16-12.39s-7.12-8.31-10.13-11.85c-5.09,7.48-11.09,14.08-18,19.8-6.91,5.72-14.37,10.6-22.37,14.65-3.33,1.66-6.65,2.94-9.98,3.82-3.33.88-6.86,1.32-10.6,1.32-2.08,0-4-.83-5.77-2.49-1.77-1.66-2.65-3.59-2.65-5.77,0-2.39.96-4.6,2.88-6.62,1.92-2.03,4.13-3.04,6.62-3.04,2.7,0,4.91,1.01,6.62,3.04s2.73,4.24,3.04,6.62c3.53-1.66,6.94-3.87,10.21-6.62,3.27-2.75,6.36-5.79,9.27-9.12,2.91-3.32,5.51-6.49,7.79-9.51,4.26-5.71,8.23-12.1,11.92-19.17,3.69-7.07,6.88-14.36,9.59-21.9,2.7-7.53,4.73-14.78,6.08-21.74h-51.91v-8.1h75.91c-1.66,7.79-4.05,15.49-7.17,23.07-3.12,7.59-6.65,14.91-10.6,21.98,2.28,5.09,5.09,10.6,8.42,16.52,3.32,5.92,6.96,11.64,10.91,17.15,3.95,5.51,7.9,10.24,11.85,14.18.73-1.87,1.97-3.59,3.74-5.14,1.77-1.56,3.69-2.34,5.77-2.34,2.7,0,5.01.6,6.94,1.79,1.92,1.2,2.88,3.3,2.88,6.31Z"/>
      <path class="cls-1" d="m747.71,72.01c0,2.39-1.09,4.39-3.27,6-2.18,1.61-4.42,2.42-6.7,2.42-9.56,0-18.5-.78-26.81-2.34-8.31-1.56-16.94-3.95-25.87-7.17v63.13h-18.39V17.93h18.39v34.6c3.22,3.12,7.4,6.08,12.55,8.88s10.49,5.28,16.05,7.4c5.56,2.13,10.47,3.82,14.73,5.07-.1-.31-.18-.62-.23-.94-.05-.31-.08-.62-.08-.94,0-2.6,1.09-4.81,3.27-6.62,2.18-1.82,4.47-2.73,6.86-2.73s4.57.96,6.55,2.88c1.97,1.92,2.96,4.08,2.96,6.47Z"/>
      <path class="cls-1" d="m900,35.07c0,8.21-.1,16.5-.31,24.86-.21,8.37-.42,16.7-.62,25.02-.1,3.01-.23,6.42-.39,10.21-.16,3.79-.75,7.09-1.79,9.9-1.46,4.16-3.72,7.46-6.78,9.9-3.07,2.44-6.55,4.16-10.44,5.14-3.9.99-7.87,1.48-11.92,1.48h-65l-1.09-86.51h98.35Zm-80.59,7.64l.62,70.3h45.83c3.12,0,5.71-.96,7.79-2.88,2.08-1.92,3.64-4.29,4.68-7.09,1.04-2.81,1.61-5.51,1.71-8.11.21-3.01.31-6.08.31-9.2v-9.2c.1-5.71.16-11.38.16-16.99s.05-11.22.16-16.83h-61.26Z"/>
    </g>
    <g id="_大衆" data-name="大衆">
      <path class="cls-2" d="m145.58,134.67c0,2.6-1.01,4.65-3.04,6.16-2.03,1.51-4.23,2.26-6.62,2.26-1.87,0-4.03-.39-6.47-1.17-2.44-.78-4.78-1.71-7.01-2.81-2.24-1.09-4.18-2.1-5.85-3.04-10.08-6.24-18.76-14.18-26.03-23.85-7.27-9.66-13.04-20-17.3-31.02h-.16c-3.53,10.08-7.82,18.7-12.86,25.87-5.04,7.17-11.98,13.82-20.81,19.95-2.6,1.77-5.3,3.3-8.1,4.6-2.81,1.3-5.61,2.52-8.42,3.66-1.87.73-4.08,1.53-6.62,2.42-2.55.88-5.12,1.61-7.72,2.18-2.6.57-4.94.86-7.01.86-.31,0-.65-.08-1.01-.23-.37-.16-.55-.44-.55-.86s.13-.73.39-.94c.26-.21.55-.42.86-.62.52-.21.99-.44,1.4-.7.41-.26.83-.49,1.25-.7,2.28-1.14,4.49-2.36,6.62-3.66,2.13-1.3,4.18-2.62,6.16-3.97,7.69-5.3,14.34-11.64,19.95-19.02,6.23-8.31,11.14-17.46,14.73-27.43,3.58-9.98,5.69-20.16,6.31-30.55H4.99v-7.64h53.15c.1-1.56.16-3.12.16-4.68v-4.68c0-5.09-.03-10.18-.08-15.28-.05-5.09-.08-10.18-.08-15.27l22.45.16c0,6.65-.08,13.28-.23,19.87-.16,6.6-.34,13.22-.55,19.87h35.54c.1-3.12,1.14-5.97,3.12-8.57,1.97-2.6,4.62-3.9,7.95-3.9,3.01,0,5.74,1.01,8.18,3.04,2.44,2.03,3.66,4.65,3.66,7.87s-1.22,5.56-3.66,7.01c-2.44,1.46-5.12,2.18-8.03,2.18h-47.38c-.11,1.66-.26,3.35-.47,5.07-.21,1.71-.42,3.46-.62,5.22l10.6-2.96c1.66,7.59,3.9,15.12,6.7,22.6s6.13,14.6,9.98,21.35c2.7,4.78,6.03,9.9,9.98,15.35,3.95,5.46,8.16,9.95,12.63,13.48.83-1.77,2.03-3.25,3.59-4.44,1.56-1.19,3.32-1.79,5.3-1.79,2.28,0,4.31.88,6.08,2.65,1.77,1.77,2.65,3.79,2.65,6.08Z"/>
      <path class="cls-2" d="m216.19,101.94c-6.65,8.73-14.78,16.44-24.39,23.15-9.61,6.7-19.77,11.4-30.47,14.11-.83.21-1.71.41-2.65.62-.94.21-1.82.31-2.65.31-.31,0-.68-.08-1.09-.23-.42-.16-.62-.44-.62-.86,0-.52.18-.94.55-1.25.36-.31.75-.57,1.17-.78,8.94-6.13,17.12-12.86,24.55-20.18,7.43-7.33,14.11-15.56,20.03-24.71l15.59,9.82Zm83.55-48.32c0,1.87-.65,3.56-1.95,5.07-1.3,1.51-2.94,2.26-4.91,2.26h-49.57c1.56.83,3.12,1.82,4.68,2.96,1.56,1.14,3.01,2.29,4.36,3.43.31.21.62.47.94.78s.47.73.47,1.25c0,.42-.18.81-.55,1.17-.36.37-.75.65-1.17.86-1.35.83-3.09,1.82-5.22,2.96-2.13,1.14-4.31,2.21-6.55,3.2-2.24.99-4.13,1.85-5.69,2.57v63.91h-17.46v-57.05c-3.95,1.14-7.98,2.13-12.08,2.96-4.11.83-8.24,1.25-12.39,1.25-1.14,0-1.72-.47-1.72-1.4,0-.31.26-.57.78-.78,1.97-.94,3.92-1.82,5.84-2.65,1.92-.83,3.82-1.71,5.69-2.65,12.05-6.23,22.96-13.82,32.73-22.76h-78.87v-7.33h17.61l.16-33.67h35.23c1.35-3.22,2.52-6.52,3.51-9.9.99-3.38,2-6.73,3.04-10.05,1.56.31,3.66.76,6.31,1.33,2.65.57,5.27,1.2,7.87,1.87,2.6.68,4.57,1.27,5.92,1.79.52.21.96.44,1.32.7.36.26.55.7.55,1.32,0,.52-.16,1.01-.47,1.48-.31.47-.68.86-1.09,1.17-2.18,1.87-4.5,3.61-6.94,5.22-2.44,1.61-4.86,3.3-7.25,5.07h56.74v24.16c0,1.66-.13,3.4-.39,5.22-.26,1.82-1.12,3.25-2.57,4.29h6.39c0-2.39.8-4.26,2.42-5.61,1.61-1.35,3.56-2.03,5.84-2.03s4.26.68,5.92,2.03c1.66,1.35,2.49,3.22,2.49,5.61Zm-92.12,16.52c-3.43,3.95-7.43,8-12,12.16-4.57,4.16-9.41,7.87-14.5,11.14-5.09,3.27-10.19,5.74-15.28,7.4-.83.31-1.79.62-2.88.94s-2.1.47-3.04.47c-.21,0-.57-.02-1.09-.08-.52-.05-.78-.29-.78-.7,0-.31.13-.6.39-.86l.55-.55c2.39-2.39,4.75-4.73,7.09-7.01,2.34-2.29,4.6-4.73,6.78-7.33,3.01-3.64,5.84-7.38,8.49-11.22,2.65-3.84,5.12-7.79,7.4-11.85l18.86,7.48Zm-4.52-16.68v-26.65h-10.6v26.65h10.6Zm27.59,0v-26.65h-10.29v26.65h10.29Zm71.7,76.38c0,2.28-.81,4.13-2.42,5.53-1.61,1.4-3.51,2.1-5.69,2.1s-4.94-.42-7.95-1.25c-3.02-.83-5.56-1.77-7.64-2.81-5.4-2.6-10.86-6.18-16.37-10.76-5.51-4.57-10.6-9.64-15.27-15.2-4.68-5.56-8.47-10.94-11.38-16.13,6.55-3.64,12.91-7.58,19.09-11.85,6.18-4.26,12.34-8.57,18.47-12.94.52.62,1.45,1.56,2.81,2.81,1.35,1.25,2.78,2.6,4.29,4.05,1.5,1.46,2.78,2.81,3.82,4.05,1.04,1.25,1.56,2.18,1.56,2.81,0,.52-.16.94-.47,1.25s-.73.57-1.25.78c-1.25.52-2.55.96-3.9,1.33-1.35.36-2.65.75-3.9,1.17-3.33,1.04-6.7,1.98-10.13,2.81-3.43.83-6.81,1.82-10.13,2.96,2.08,4.47,4.68,9.07,7.79,13.79,3.12,4.73,6.55,9.15,10.29,13.25,3.74,4.11,7.64,7.61,11.69,10.52.83-1.56,1.95-2.99,3.35-4.29,1.4-1.3,3.09-1.95,5.07-1.95s3.84.83,5.61,2.49c1.77,1.66,2.65,3.48,2.65,5.46Zm-41.77-103.03h-12.47v26.65h6.86c2.18,0,3.66-.6,4.44-1.79.78-1.19,1.17-2.78,1.17-4.75v-20.11Z"/>
    </g>
  </g>
</svg>