<?xml version="1.0" encoding="UTF-8"?>
<svg id="_レイヤー_1" data-name=" レイヤー 1" xmlns="http://www.w3.org/2000/svg" viewBox="0 0 480 480">
  <defs>
    <style>
      .cls-1 {
        fill: #fff;
      }

      .cls-1, .cls-2 {
        stroke-width: 0px;
      }

      .cls-2 {
        fill: #00afcc;
      }
    </style>
  </defs>
  <path id="_背景" data-name=" 背景" class="cls-2" d="m480,100.04v379.96H100.04c-3.02,0-6.01-.13-8.96-.4-47.71-4.23-85.79-41.96-90.57-89.51-.34-3.33-.51-6.71-.51-10.13V100.04C0,45.46,43.71,1.09,98.04.02c.66,0,1.33-.02,2-.02h279.92c53.16,0,96.64,41.47,99.84,93.83.14,2.05.2,4.12.2,6.21h0Z"/>
  <g id="_アイコン" data-name=" アイコン">
    <path class="cls-1" d="m344.26,411.36l30.27,5.64v22.6h-50.44l-102.08-123.07h-33.09v94.83l32.29,5.64v22.6h-99.26v-22.6l32.27-5.64v-201.75l-32.27-5.64v-22.6h99.26v22.6l-32.29,5.64v77.07h30.27l59.32-73.84c28.64-35.91,47.21-37.93,59.72-37.93,14.93,0,33.09,10.9,33.09,29.05,0,12.11-8.88,24.21-23.81,24.21-10.09,0-18.17-7.67-18.17-18.17,0-3.63.81-4.84,1.61-6.05-7.27,1.21-13.72,7.67-22.6,18.96l-58.51,74.65,94.43,113.79h-.01Z"/>
    <path class="cls-1" d="m67.67,191.46H23.49L238.99,33.16h2.01l215.49,158.31h-44.18l-172.32-127.08-172.33,127.07Z"/>
  </g>
</svg>