<?xml version="1.0" encoding="UTF-8"?>
<svg id="_レイヤー_1" data-name="レイヤー 1" xmlns="http://www.w3.org/2000/svg" viewBox="0 0 500 381.03">
  <defs>
    <style>
      .cls-1 {
        fill: #dcdddd;
      }

      .cls-1, .cls-2 {
        stroke-width: 0px;
      }

      .cls-2 {
        fill: #e7ea80;
      }
    </style>
  </defs>
  <g id="_アイコン" data-name="アイコン">
    <path class="cls-1" d="m326.92,360.59l21.9,4.09v16.35h-36.5l-73.88-89.06h-23.95v68.62l23.36,4.09v16.35h-71.84v-16.35l23.36-4.09v-146.01l-23.36-4.09v-16.35h71.84v16.35l-23.36,4.09v55.77h21.9l42.93-53.44c20.73-25.99,34.17-27.45,43.22-27.45,10.81,0,23.95,7.88,23.95,21.03,0,8.76-6.43,17.52-17.23,17.52-7.3,0-13.14-5.55-13.14-13.14,0-2.63.59-3.5,1.17-4.38-5.26.88-9.93,5.55-16.35,13.72l-42.34,54.02,68.33,82.35Z"/>
    <g>
      <path class="cls-2" d="m195.83,160.69c0,3.64-.84,6.87-2.53,9.68-1.69,2.81-4.24,4.94-7.67,6.38-1.93.86-4.08,1.4-6.46,1.65-2.38.24-4.62.36-6.7.36h-1.45c-.48,0-.96-.03-1.45-.08-3.91-.16-7.84-.24-11.8-.24-1.5,0-3,.07-4.5.2-1.5.13-3.02.2-4.58.2-.21,0-.4-.09-.56-.28-.16-.19-.24-.39-.24-.6,0-.64.25-1.03.76-1.16.51-.13,1.11-.25,1.81-.36.69-.11,1.34-.43,1.93-.96.59-.53.94-1.55,1.04-3.05.05-.64.08-1.29.08-1.93v-1.93c0-6.8-.01-13.58-.04-20.35-.03-6.77-.04-13.56-.04-20.35,0-2.36-.4-3.8-1.2-4.34-.8-.53-2.3-.8-4.5-.8-.37,0-.71-.13-1-.4-.29-.27-.44-.59-.44-.96,0-1.02.56-1.53,1.69-1.53s2.17.05,3.29.16c1.12.11,2.22.16,3.29.16,2.73,0,5.46-.09,8.19-.28,2.73-.19,5.46-.39,8.19-.6.53-.05,1.06-.09,1.57-.12.51-.03,1-.04,1.49-.04,3.05,0,5.93.36,8.63,1.08,2.7.72,4.9,2.05,6.58,3.97,1.69,1.93,2.53,4.71,2.53,8.35,0,2.09-.55,4.07-1.65,5.94-1.1,1.87-2.48,3.43-4.13,4.66-.54.48-1.12.9-1.77,1.24-.64.35-1.31.68-2.01,1-.11.05-.31.15-.6.28-.29.14-.44.31-.44.52,0,.16.15.28.44.36.29.08.49.15.6.2.86.21,1.69.44,2.49.68.8.24,1.61.58,2.41,1,2.46,1.18,4.54,2.81,6.22,4.9,1.69,2.09,2.53,4.55,2.53,7.39Zm-15.5-27.3c0-3.16-.47-5.55-1.41-7.19-.94-1.63-2.37-2.73-4.3-3.29s-4.34-.84-7.23-.84c-.54,0-1.07.01-1.61.04-.54.03-1.07.07-1.61.12v23.77h2.33c1.07,0,2.25-.04,3.53-.12,1.28-.08,2.53-.31,3.73-.68s2.21-.96,3.01-1.77c1.23-1.23,2.13-2.78,2.69-4.66.56-1.87.84-3.67.84-5.38Zm4.01,28.66c0-2.14-.23-4.27-.68-6.38-.46-2.11-1.34-3.89-2.65-5.34-1.31-1.45-3.31-2.17-5.98-2.17-1.82,0-3.63.04-5.42.12-1.79.08-3.6.12-5.42.12v25.13c0,1.5.39,2.38,1.16,2.65.78.27,1.75.4,2.93.4h1.97c.67,0,1.32-.03,1.97-.08,2.68-.16,4.91-.91,6.7-2.25,1.79-1.34,3.14-3.08,4.05-5.22.91-2.14,1.36-4.47,1.36-6.98Z"/>
      <path class="cls-2" d="m224.89,177.23c0,.86-.43,1.29-1.28,1.29-1.55,0-3.13-.07-4.74-.2-1.61-.13-3.21-.2-4.82-.2s-3.23.07-4.86.2c-1.63.13-3.25.2-4.86.2-.37,0-.64-.15-.8-.44-.16-.29-.24-.57-.24-.84,0-.85.4-1.28,1.2-1.28.53,0,1.04.03,1.53.08.48.05.96.08,1.45.08.64,0,1.06-.21,1.24-.64.19-.43.28-.91.28-1.45v-31.87c0-.53-.05-1.14-.16-1.81-.11-.67-.54-1-1.28-1-.7,0-1.42.05-2.17.16-.75.11-1.5.16-2.25.16-.32,0-.63-.08-.92-.24-.3-.16-.44-.43-.44-.8,0-.69.35-1.15,1.04-1.36.59-.11,1.22-.2,1.89-.28.67-.08,1.3-.15,1.89-.2,1.87-.27,3.71-.6,5.5-1,1.79-.4,3.6-.82,5.42-1.24.16,0,.32-.01.48-.04.16-.03.29-.04.4-.04.8,0,1.2.32,1.2.96,0,6.42-.03,12.86-.08,19.31-.05,6.45-.08,12.89-.08,19.31,0,.96.21,1.57.64,1.81.43.24.98.34,1.65.28.67-.05,1.35-.08,2.05-.08.75,0,1.12.4,1.12,1.2Zm-5.06-55.16c0,1.66-.6,3.1-1.81,4.34-1.2,1.23-2.66,1.85-4.38,1.85s-3.1-.61-4.34-1.85c-1.23-1.23-1.85-2.68-1.85-4.34s.61-3.17,1.85-4.38c1.23-1.2,2.68-1.81,4.34-1.81s3.17.6,4.38,1.81,1.81,2.66,1.81,4.38Z"/>
      <path class="cls-2" d="m261.18,166.39c0,2.52-.54,4.56-1.61,6.14-1.07,1.58-2.49,2.8-4.26,3.65-1.77.86-3.68,1.45-5.74,1.77-2.06.32-4.11.48-6.14.48-1.34,0-2.65-.13-3.93-.4-1.28-.27-2.57-.56-3.85-.88-.54-.11-1.1-.23-1.69-.36-.59-.13-1.18-.2-1.77-.2-.21-.75-.52-1.86-.92-3.33s-.78-2.92-1.12-4.34c-.35-1.42-.52-2.42-.52-3.01s.19-.96.56-1.12c.37-.16.78-.24,1.2-.24.64,0,1.12.24,1.45.72.8,1.12,1.45,2.3,1.93,3.53.48,1.23,1.23,2.38,2.25,3.45.75.8,1.83,1.62,3.25,2.45,1.42.83,2.69,1.24,3.81,1.24,2.41,0,4.22-.56,5.42-1.69,1.2-1.12,1.81-2.92,1.81-5.38,0-1.66-.51-3.05-1.53-4.18-1.02-1.12-2.32-2.14-3.89-3.05-1.58-.91-3.25-1.81-5.02-2.69s-3.44-1.86-5.02-2.93c-1.58-1.07-2.88-2.37-3.89-3.89-1.02-1.53-1.53-3.38-1.53-5.58,0-2.73.75-4.95,2.25-6.66,1.5-1.71,3.41-2.97,5.74-3.77,2.33-.8,4.67-1.2,7.03-1.2,1.07,0,2.11.08,3.13.24,1.02.16,2.03.46,3.05.88.48.16,1.14.36,1.97.6.83.24,1.49.36,1.97.36.69,0,1.36-.08,2.01-.24.11,1.5.28,3,.52,4.5.24,1.5.39,3,.44,4.5v.24c.05.54-.09.98-.44,1.33-.35.35-.76.52-1.24.52-.54,0-.92-.11-1.16-.32-.24-.21-.47-.53-.68-.96-.7-1.55-1.38-3.04-2.05-4.46-.67-1.42-1.55-2.58-2.65-3.49-1.1-.91-2.66-1.36-4.7-1.36-2.14,0-3.72.83-4.74,2.49-1.02,1.66-1.53,3.43-1.53,5.3,0,1.5.56,2.78,1.69,3.85,1.12,1.07,2.27,1.93,3.45,2.57,1.45.75,3.12,1.58,5.02,2.49,1.9.91,3.73,1.95,5.5,3.13s3.24,2.53,4.42,4.05c1.18,1.53,1.77,3.28,1.77,5.26Z"/>
      <path class="cls-2" d="m292.9,174.34c0,.75-.39,1.4-1.16,1.97-.78.56-1.74,1.02-2.89,1.37-1.15.35-2.32.6-3.49.76-1.18.16-2.17.24-2.97.24-4.01,0-6.8-.81-8.35-2.45-1.55-1.63-2.33-4.35-2.33-8.15,0-4.6.03-9.21.08-13.81.05-4.6.08-9.21.08-13.81h-3.69c-.54,0-.99.17-1.37.52-.38.35-.72.52-1.04.52-.54,0-.8-.27-.8-.8,0-.21.11-.61.32-1.2.21-.59.37-.96.48-1.12.16-.32.32-.51.48-.56s.4-.08.72-.08h4.98v-8.59c1.34-.75,2.81-1.85,4.42-3.29s2.84-2.78,3.69-4.01c.16-.27.37-.55.64-.84.27-.29.59-.44.96-.44.86,0,1.26.38,1.2,1.12l-.24,16.06h8.27c.43,0,.82.09,1.16.28.35.19.52.52.52,1,0,1.02-.56,1.53-1.69,1.53h-8.27l-.16,30.99c0,.86.17,1.67.52,2.45.35.78,1.03,1.16,2.05,1.16.91,0,1.83-.08,2.77-.24.94-.16,1.81-.43,2.61-.8.27-.11.52-.23.76-.36.24-.13.49-.2.76-.2.64,0,.96.27.96.8Z"/>
      <path class="cls-2" d="m328.55,144.55c0,.54-.15,1.03-.44,1.49-.29.46-.74.68-1.32.68-.91,0-1.53-.37-1.85-1.12-.32-.69-.66-1.51-1-2.45-.35-.94-.8-1.75-1.36-2.45-.56-.69-1.35-1.04-2.37-1.04-.54,0-1.04.11-1.53.32-.48.21-.94.48-1.37.8-1.71,1.18-3.09,2.85-4.13,5.02-1.04,2.17-1.73,4.3-2.05,6.38v-.08,21.76c0,.91.25,1.5.76,1.77.51.27,1.12.36,1.85.28.72-.08,1.38-.12,1.97-.12.75,0,1.12.4,1.12,1.2,0,.86-.43,1.29-1.28,1.29-1.61,0-3.21-.03-4.82-.08s-3.21-.08-4.82-.08-3.32.04-4.98.12c-1.66.08-3.35.12-5.06.12-.37,0-.64-.15-.8-.44s-.24-.57-.24-.84c0-.8.43-1.2,1.29-1.2.53,0,1.06.01,1.57.04.51.03,1.03.04,1.57.04.64,0,1.07-.21,1.28-.64.21-.43.32-.91.32-1.45v-29.07c0-.59-.05-1.28-.16-2.09-.11-.8-.33-1.53-.68-2.17-.35-.64-.92-.96-1.73-.96-.54,0-1.06.07-1.57.2-.51.13-1.06.2-1.65.2-.8,0-1.2-.4-1.2-1.2,0-.59.29-.99.88-1.2.75-.27,1.53-.44,2.33-.52.8-.08,1.58-.2,2.33-.36.7-.16,1.61-.39,2.73-.68,1.12-.29,2.23-.56,3.33-.8,1.1-.24,1.94-.36,2.53-.36.8,0,1.39.3,1.77.88.16.27.32.9.48,1.89.16.99.29,2,.4,3.01.11,1.02.16,1.74.16,2.17,1.66-2.09,3.51-3.99,5.54-5.7,2.03-1.71,4.5-2.57,7.39-2.57.75,0,1.54.15,2.37.44.83.3,1.35.87,1.57,1.73.27,1.02.48,2.32.64,3.89.16,1.58.24,2.9.24,3.97Z"/>
      <path class="cls-2" d="m374.79,157.48c0,4.12-.94,7.78-2.81,10.96-1.87,3.19-4.43,5.69-7.67,7.51-3.24,1.82-6.92,2.73-11.04,2.73s-7.76-.96-10.92-2.89c-3.16-1.93-5.63-4.52-7.43-7.79-1.79-3.26-2.69-6.93-2.69-11s.88-8.02,2.65-11.36c1.77-3.34,4.26-5.99,7.47-7.95,3.21-1.95,6.96-2.93,11.24-2.93,4.71,0,8.63.95,11.76,2.85,3.13,1.9,5.49,4.55,7.07,7.95,1.58,3.4,2.37,7.37,2.37,11.92Zm-10.92-.4c0-1.77-.12-3.79-.36-6.06-.24-2.27-.74-4.48-1.49-6.62-.75-2.14-1.83-3.92-3.25-5.34-1.42-1.42-3.33-2.13-5.74-2.13-2.2,0-3.96.7-5.3,2.09-1.34,1.39-2.37,3.13-3.09,5.22-.72,2.09-1.22,4.24-1.48,6.46-.27,2.22-.4,4.13-.4,5.74,0,1.77.12,3.79.36,6.06.24,2.28.74,4.48,1.49,6.62.75,2.14,1.85,3.91,3.29,5.3,1.45,1.39,3.37,2.09,5.78,2.09,2.25,0,4.05-.68,5.42-2.05,1.36-1.37,2.39-3.08,3.09-5.14.69-2.06,1.15-4.2,1.36-6.42.21-2.22.32-4.16.32-5.82Z"/>
    </g>
    <path class="cls-1" d="m51.01,182.8H0L248.83,0h2.33l248.84,182.8h-51.01L250,36.06,51.01,182.8Z"/>
  </g>
</svg>