<?xml version="1.0" encoding="UTF-8"?>
<svg id="_レイヤー_1" data-name="レイヤー 1" xmlns="http://www.w3.org/2000/svg" viewBox="0 0 600 212.27">
  <defs>
    <style>
      .cls-1 {
        fill: #e0e380;
      }

      .cls-1, .cls-2 {
        stroke-width: 0px;
      }

      .cls-2 {
        fill: #dcdddd;
      }
    </style>
  </defs>
  <g id="_大衆ビストロ" data-name="大衆ビストロ">
    <g id="_ビストロ" data-name="ビストロ">
      <path class="cls-1" d="m291.38,68.9c0,1.8-.71,3.46-2.13,4.99-1.42,1.52-2.82,2.77-4.21,3.74-2.84,1.94-6.1,3.58-9.77,4.94-3.67,1.35-7.45,2.39-11.33,3.12-3.88.73-7.55,1.09-11.01,1.09s-7.17-.29-10.7-.88c-3.53-.59-6.67-1.84-9.4-3.74-2.74-1.9-4.76-4.83-6.08-8.78-.69-2.08-1.11-4.28-1.25-6.6-.14-2.32-.21-4.55-.21-6.7V16.94h12.47c-.14,4.71-.24,9.46-.31,14.24-.07,4.78-.1,9.53-.1,14.24l.1-.1c4.16-1.25,8.33-2.96,12.52-5.14,4.19-2.18,8.3-4.57,12.31-7.17,4.02-2.6,7.76-5.18,11.22-7.74.28.28.92.88,1.92,1.82,1,.94,2.09,1.99,3.27,3.17,1.18,1.18,2.2,2.23,3.07,3.17.87.94,1.3,1.51,1.3,1.71,0,.62-.28,1.09-.83,1.4-.56.31-1.07.57-1.56.78-3.81,1.73-8.07,3.38-12.78,4.94-4.71,1.56-9.47,2.84-14.29,3.84-4.82,1-9.37,1.58-13.66,1.71h-.52c-.35,0-.71-.02-1.09-.05-.38-.03-.74-.12-1.09-.26v15.9c0,1.94.1,3.93.31,5.97.21,2.04.87,3.9,1.97,5.56,1.38,2.15,3.34,3.65,5.87,4.52,2.53.87,4.97,1.3,7.33,1.3,4.78,0,9.68-.59,14.7-1.77,5.02-1.18,9.65-2.84,13.87-4.99-.97-.35-1.8-1-2.49-1.97-.69-.97-1.04-2.01-1.04-3.12,0-1.59.69-3.01,2.08-4.26,1.38-1.25,2.87-1.87,4.47-1.87s3.26.57,4.78,1.71c1.52,1.14,2.29,2.62,2.29,4.42Zm-4.16-46.45c0,.21-.14.43-.42.68-.28.24-.52.36-.73.36-.49,0-1.3-.26-2.44-.78-1.14-.52-2.41-1.14-3.79-1.87-1.39-.73-2.7-1.4-3.95-2.03-1.25-.62-2.22-1.07-2.91-1.35-.28-.07-.54-.19-.78-.36-.24-.17-.36-.4-.36-.68,0-.35.42-.99,1.25-1.92.83-.94,1.75-1.82,2.75-2.65,1-.83,1.71-1.25,2.13-1.25.76,0,1.66.47,2.7,1.4,1.04.94,2.06,2.08,3.06,3.43,1,1.35,1.84,2.67,2.49,3.95.66,1.28.99,2.3.99,3.07Zm11.12-4.88c0,.28-.1.57-.31.88-.21.31-.49.47-.83.47s-1.07-.36-2.18-1.09c-1.11-.73-2.34-1.59-3.69-2.6-1.35-1-2.63-1.94-3.84-2.81-1.21-.87-2.1-1.44-2.65-1.71-.21-.14-.42-.29-.62-.47-.21-.17-.31-.4-.31-.68,0-.42.43-1.07,1.3-1.97.87-.9,1.8-1.71,2.81-2.44,1-.73,1.71-1.09,2.13-1.09.76,0,1.61.56,2.55,1.66.94,1.11,1.83,2.46,2.7,4.05.87,1.59,1.57,3.12,2.13,4.57.55,1.46.83,2.53.83,3.22Z"/>
      <path class="cls-1" d="m401.73,80.43c0,1.94-.69,3.43-2.08,4.47-1.39,1.04-2.98,1.56-4.78,1.56-3.4,0-6.72-.85-9.98-2.55-3.26-1.7-6.34-3.84-9.25-6.44-2.91-2.6-5.61-5.35-8.1-8.26s-4.75-5.54-6.75-7.9c-3.4,4.99-7.4,9.39-12,13.2-4.61,3.81-9.58,7.07-14.91,9.77-2.22,1.11-4.43,1.96-6.65,2.55-2.22.59-4.57.88-7.07.88-1.39,0-2.67-.55-3.84-1.66-1.18-1.11-1.77-2.39-1.77-3.84,0-1.59.64-3.07,1.92-4.42,1.28-1.35,2.75-2.03,4.42-2.03,1.8,0,3.27.68,4.42,2.03s1.82,2.82,2.03,4.42c2.35-1.11,4.62-2.58,6.81-4.42,2.18-1.83,4.24-3.86,6.18-6.08,1.94-2.22,3.67-4.33,5.2-6.34,2.84-3.81,5.49-8.07,7.95-12.78,2.46-4.71,4.59-9.58,6.39-14.6,1.8-5.02,3.15-9.85,4.05-14.5h-34.6v-5.4h50.61c-1.11,5.2-2.7,10.32-4.78,15.38-2.08,5.06-4.43,9.94-7.07,14.65,1.52,3.39,3.39,7.07,5.61,11.01,2.22,3.95,4.64,7.76,7.27,11.43,2.63,3.67,5.26,6.82,7.9,9.46.48-1.25,1.31-2.39,2.49-3.43,1.18-1.04,2.46-1.56,3.84-1.56,1.8,0,3.34.4,4.62,1.19,1.28.8,1.92,2.2,1.92,4.21Z"/>
      <path class="cls-1" d="m498.48,48.01c0,1.59-.73,2.93-2.18,4-1.46,1.07-2.95,1.61-4.47,1.61-6.37,0-12.33-.52-17.87-1.56-5.54-1.04-11.29-2.63-17.25-4.78v42.09h-12.26V11.95h12.26v23.07c2.15,2.08,4.94,4.05,8.36,5.92s7,3.52,10.7,4.94c3.71,1.42,6.98,2.55,9.82,3.38-.07-.21-.12-.42-.16-.62-.04-.21-.05-.42-.05-.62,0-1.73.73-3.2,2.18-4.42,1.46-1.21,2.98-1.82,4.57-1.82s3.05.64,4.36,1.92c1.31,1.28,1.97,2.72,1.97,4.31Z"/>
      <path class="cls-1" d="m600,23.38c0,5.47-.07,11-.21,16.57-.14,5.58-.28,11.14-.42,16.68-.07,2.01-.16,4.28-.26,6.81-.1,2.53-.5,4.73-1.19,6.6-.97,2.77-2.48,4.97-4.52,6.6-2.04,1.63-4.36,2.77-6.96,3.43-2.6.66-5.25.99-7.95.99h-43.33l-.73-57.67h65.57Zm-53.72,5.09l.42,46.87h30.55c2.08,0,3.81-.64,5.2-1.92,1.38-1.28,2.42-2.86,3.12-4.73.69-1.87,1.07-3.67,1.14-5.4.14-2.01.21-4.05.21-6.13v-6.13c.07-3.81.1-7.59.1-11.33s.03-7.48.1-11.22h-40.84Z"/>
    </g>
    <g id="_大衆" data-name="大衆">
      <path class="cls-2" d="m97.06,89.78c0,1.73-.68,3.1-2.03,4.1-1.35,1-2.82,1.51-4.42,1.51-1.25,0-2.69-.26-4.31-.78-1.63-.52-3.19-1.14-4.68-1.87-1.49-.73-2.79-1.4-3.9-2.03-6.72-4.16-12.51-9.46-17.35-15.9-4.85-6.44-8.69-13.34-11.53-20.68h-.1c-2.36,6.72-5.21,12.47-8.57,17.25-3.36,4.78-7.99,9.21-13.87,13.3-1.73,1.18-3.53,2.2-5.4,3.07-1.87.87-3.74,1.68-5.61,2.44-1.25.48-2.72,1.02-4.42,1.61-1.7.59-3.41,1.07-5.14,1.45-1.73.38-3.29.57-4.68.57-.21,0-.43-.05-.68-.16-.24-.1-.36-.3-.36-.57s.09-.49.26-.62c.17-.14.36-.28.57-.42.35-.14.66-.3.94-.47.28-.17.55-.33.83-.47,1.52-.76,3-1.58,4.42-2.44,1.42-.87,2.79-1.75,4.1-2.65,5.13-3.53,9.56-7.76,13.3-12.68,4.16-5.54,7.43-11.64,9.82-18.29,2.39-6.65,3.79-13.44,4.21-20.37H3.32v-5.09h35.44c.07-1.04.1-2.08.1-3.12v-3.12c0-3.39-.02-6.79-.05-10.18-.04-3.39-.05-6.79-.05-10.18l14.96.1c0,4.43-.05,8.85-.16,13.25-.1,4.4-.23,8.82-.36,13.25h23.69c.07-2.08.76-3.98,2.08-5.72,1.32-1.73,3.08-2.6,5.3-2.6,2.01,0,3.83.68,5.46,2.03,1.63,1.35,2.44,3.1,2.44,5.25s-.81,3.71-2.44,4.68c-1.63.97-3.41,1.46-5.35,1.46h-31.59c-.07,1.11-.17,2.23-.31,3.38-.14,1.14-.28,2.3-.42,3.48l7.07-1.97c1.11,5.06,2.6,10.08,4.47,15.07s4.09,9.73,6.65,14.24c1.8,3.19,4.02,6.6,6.65,10.24,2.63,3.64,5.44,6.63,8.42,8.99.55-1.18,1.35-2.16,2.39-2.96,1.04-.8,2.22-1.2,3.53-1.2,1.52,0,2.87.59,4.05,1.77,1.18,1.18,1.77,2.53,1.77,4.05Z"/>
      <path class="cls-2" d="m144.13,67.96c-4.43,5.82-9.86,10.96-16.26,15.43-6.41,4.47-13.18,7.6-20.31,9.4-.56.14-1.14.28-1.77.42-.62.14-1.21.21-1.77.21-.21,0-.45-.05-.73-.16-.28-.1-.42-.3-.42-.57,0-.35.12-.62.36-.83.24-.21.5-.38.78-.52,5.96-4.09,11.41-8.57,16.37-13.46,4.95-4.88,9.4-10.37,13.35-16.47l10.39,6.55Zm55.7-32.21c0,1.25-.43,2.37-1.3,3.38-.87,1-1.96,1.51-3.27,1.51h-33.04c1.04.56,2.08,1.21,3.12,1.97,1.04.76,2.01,1.52,2.91,2.29.21.14.42.31.62.52s.31.49.31.83c0,.28-.12.54-.36.78-.24.24-.5.43-.78.57-.9.56-2.06,1.21-3.48,1.97-1.42.76-2.88,1.47-4.36,2.13-1.49.66-2.75,1.23-3.79,1.71v42.6h-11.64v-38.03c-2.63.76-5.32,1.42-8.05,1.97-2.74.55-5.49.83-8.26.83-.76,0-1.14-.31-1.14-.94,0-.21.17-.38.52-.52,1.31-.62,2.61-1.21,3.9-1.77,1.28-.55,2.55-1.14,3.79-1.77,8.04-4.16,15.31-9.21,21.82-15.17h-52.58v-4.88h11.74l.1-22.45h23.48c.9-2.15,1.68-4.35,2.34-6.6.66-2.25,1.33-4.48,2.03-6.7,1.04.21,2.44.5,4.21.88,1.77.38,3.52.8,5.25,1.25,1.73.45,3.05.85,3.95,1.2.35.14.64.3.88.47.24.17.36.47.36.88,0,.35-.1.68-.31.99-.21.31-.45.57-.73.78-1.45,1.25-3,2.41-4.62,3.48-1.63,1.08-3.24,2.2-4.83,3.38h37.82v16.11c0,1.11-.09,2.27-.26,3.48-.17,1.21-.74,2.17-1.71,2.86h4.26c0-1.59.54-2.84,1.61-3.74,1.07-.9,2.37-1.35,3.9-1.35s2.84.45,3.95,1.35c1.11.9,1.66,2.15,1.66,3.74Zm-61.41,11.02c-2.29,2.63-4.95,5.34-8,8.1-3.05,2.77-6.27,5.25-9.66,7.43-3.4,2.18-6.79,3.83-10.18,4.94-.56.21-1.2.42-1.92.62s-1.4.31-2.03.31c-.14,0-.38-.02-.73-.05-.35-.03-.52-.19-.52-.47,0-.21.09-.4.26-.57l.36-.36c1.59-1.59,3.17-3.15,4.73-4.68,1.56-1.52,3.07-3.15,4.52-4.88,2.01-2.42,3.9-4.92,5.66-7.48,1.77-2.56,3.41-5.2,4.94-7.9l12.57,4.99Zm-3.01-11.12v-17.77h-7.07v17.77h7.07Zm18.39,0v-17.77h-6.86v17.77h6.86Zm47.8,50.92c0,1.52-.54,2.75-1.61,3.69-1.07.94-2.34,1.4-3.79,1.4s-3.29-.28-5.3-.83c-2.01-.56-3.71-1.18-5.09-1.87-3.6-1.73-7.24-4.12-10.91-7.17-3.67-3.05-7.07-6.42-10.18-10.13-3.12-3.7-5.65-7.29-7.59-10.75,4.36-2.42,8.61-5.06,12.73-7.9,4.12-2.84,8.23-5.72,12.31-8.62.35.42.97,1.04,1.87,1.87.9.83,1.85,1.73,2.86,2.7,1,.97,1.85,1.87,2.55,2.7.69.83,1.04,1.45,1.04,1.87,0,.35-.1.62-.31.83s-.49.38-.83.52c-.83.35-1.7.64-2.6.88-.9.24-1.77.5-2.6.78-2.22.69-4.47,1.32-6.75,1.87-2.29.56-4.54,1.21-6.75,1.97,1.38,2.98,3.12,6.05,5.2,9.2,2.08,3.15,4.36,6.1,6.86,8.83,2.49,2.74,5.09,5.08,7.79,7.01.55-1.04,1.3-1.99,2.23-2.86.94-.87,2.06-1.3,3.38-1.3s2.56.56,3.74,1.66c1.18,1.11,1.77,2.32,1.77,3.64Zm-27.85-68.69h-8.31v17.77h4.57c1.45,0,2.44-.4,2.96-1.2.52-.8.78-1.85.78-3.17v-13.41Z"/>
    </g>
  </g>
  <g id="Ken1">
    <path class="cls-2" d="m269.25,201.74l9.19,1.71v6.86h-15.31l-30.99-37.36h-10.04v28.78l9.8,1.71v6.86h-30.13v-6.86l9.8-1.71v-61.24l-9.8-1.71v-6.86h30.13v6.86l-9.8,1.71v23.39h9.19l18.01-22.41c8.7-10.9,14.33-11.51,18.13-11.51,4.53,0,10.04,3.31,10.04,8.82,0,3.67-2.69,7.35-7.23,7.35-3.06,0-5.51-2.33-5.51-5.51,0-1.1.25-1.47.49-1.84-2.2.37-4.16,2.33-6.86,5.76l-17.76,22.66,28.66,34.54Z"/>
    <path class="cls-2" d="m338.83,198.67l4.29,6.61c-.61.49-9.68,6.98-23.52,6.98-18.01,0-30.62-10.78-30.62-29.89s12.13-30.86,29.27-30.86c19.47,0,26.95,13.11,26.95,26.09,0,5.02-1.1,7.72-1.35,8.33h-45.07c.86,10.9,8.45,17.88,20.94,17.88,11.15,0,18.37-4.65,19.11-5.14Zm-3.06-21.19c.06-.55.12-1.29.12-2.08,0-6-3.06-15.31-17.76-15.31-9.92,0-17.64,6.37-19.23,17.39h36.87Z"/>
    <path class="cls-2" d="m376.19,161.44c1.84-2.08,9.19-9.92,22.9-9.92,12.98,0,23.64,6.86,23.64,25.11v25.35l9.8,1.47v6.86h-28.42v-6.86l8.57-1.47v-24.13c0-12.74-4.9-17.39-15.92-17.39s-17.64,8.57-19.23,11.88v29.64l9.8,1.47v6.86h-28.41v-6.86l8.57-1.47v-39.68l-10.04-1.47v-7.35l16.9-.98,1.84,8.94Z"/>
  </g>
</svg>