<?xml version="1.0" encoding="UTF-8"?>
<svg id="_レイヤー_1" data-name="レイヤー 1" xmlns="http://www.w3.org/2000/svg" viewBox="0 0 230 82.03">
  <defs>
    <style>
      .cls-1 {
        fill: #dcdddd;
        stroke-width: 0px;
      }
    </style>
  </defs>
  <g id="Ken1">
    <path class="cls-1" d="m67.26,71.53l9.16,1.71v6.84h-15.26l-30.88-37.23h-10.01v28.69l9.77,1.71v6.84H0v-6.84l9.76-1.71V10.5L0,8.79V1.95h30.03v6.84l-9.77,1.71v23.32h9.16l17.95-22.34C56.03.61,61.65,0,65.43,0c4.52,0,10.01,3.3,10.01,8.79,0,3.66-2.69,7.32-7.2,7.32-3.05,0-5.49-2.32-5.49-5.49,0-1.1.25-1.46.49-1.83-2.2.37-4.15,2.32-6.84,5.74l-17.7,22.58,28.56,34.42Z"/>
    <path class="cls-1" d="m136.61,68.48l4.27,6.59c-.61.49-9.64,6.96-23.44,6.96-17.95,0-30.52-10.74-30.52-29.79s12.08-30.76,29.18-30.76c19.41,0,26.86,13.06,26.86,26,0,5-1.1,7.69-1.34,8.3h-44.92c.85,10.86,8.42,17.82,20.87,17.82,11.11,0,18.31-4.64,19.04-5.13Zm-3.05-21.12c.06-.55.12-1.28.12-2.08,0-5.98-3.05-15.26-17.7-15.26-9.89,0-17.58,6.35-19.17,17.33h36.74Z"/>
    <path class="cls-1" d="m173.85,31.37c1.83-2.07,9.16-9.89,22.83-9.89,12.94,0,23.56,6.84,23.56,25.02v25.27l9.77,1.46v6.84h-28.32v-6.84l8.54-1.46v-24.05c0-12.69-4.88-17.33-15.87-17.33s-17.58,8.55-19.17,11.84v29.54l9.76,1.46v6.84h-28.32v-6.84l8.54-1.46v-39.55l-10.01-1.47v-7.32l16.85-.98,1.83,8.91Z"/>
  </g>
</svg>